<svg xmlns="http://www.w3.org/2000/svg" width="973" height="202" viewBox="0 0 973 202">
  <g id="StitchMark_Logo--Horizontal" transform="translate(-439 -215)">
    <text id="StitchMark" transform="translate(668 366)" font-size="145" font-family="Alan Sans" font-weight="700"><tspan x="0" y="0">StitchMark</tspan></text>
    <g id="Group_3" data-name="Group 3" transform="translate(-258.06 39.94)">
      <circle id="Ellipse_10" data-name="Ellipse 10" cx="101" cy="101" r="101" transform="translate(697.06 175.06)" fill="#b87a60"/>
      <path id="Union_1" data-name="Union 1" d="M30.162,163.622a29.457,29.457,0,0,1-16.545-5.054,29.677,29.677,0,0,1-10.721-13.02A29.4,29.4,0,0,1,.569,134.03V98.7c-1.512-25.657-1.8-81.76,23.094-94.306C33.926-.779,43.679-1.387,52.652,2.585c15.55,6.883,24.63,26.28,34.769,62.838,1.163,4.193,1.59,9.372-2.6,10.535s-7-4.314-8.164-8.506C68.115,36.66,56.876,21.687,46.274,16.994c-2.879-1.275-7.622-2.51-15.52,1.47-9.38,4.727-10.894,27.414-9.959,51.729.1,2.644.786,8.194,2.868,11.1s5.7,3.715,7.276,3.927H61.291a29.454,29.454,0,0,1,16.545,5.054A29.68,29.68,0,0,1,88.558,103.3a29.408,29.408,0,0,1,2.325,11.519V134.03a29.454,29.454,0,0,1-5.054,16.545A29.677,29.677,0,0,1,72.81,161.3a29.4,29.4,0,0,1-11.519,2.326ZM49.9,104.186a4.362,4.362,0,0,0-1.286,3.1v16.335a16.922,16.922,0,0,0,16.936,16.937,10.341,10.341,0,0,0,10.35-10.35v-14.14A13.162,13.162,0,0,0,62.722,102.9H53A4.361,4.361,0,0,0,49.9,104.186Z" transform="matrix(0.921, -0.391, 0.391, 0.921, 724.161, 218.556)" fill="#fff"/>
    </g>
  </g>
</svg>
